<?xml version="1.0" encoding="UTF-8" standalone="no"?>
<!DOCTYPE svg PUBLIC "-//W3C//DTD SVG 1.1//EN" "http://www.w3.org/Graphics/SVG/1.1/DTD/svg11.dtd">
<svg xmlns="http://www.w3.org/2000/svg" version="1.1" viewBox="0.00 0.00 1024.00 1024.00">
<g stroke-width="2.00" fill="none" stroke-linecap="butt">
<path stroke="#1a1e24" vector-effect="non-scaling-stroke" d="
  M 1024.00 1008.66
  Q 1016.44 1007.35 1007.90 1008.19"
/>
<path stroke="#827f7c" vector-effect="non-scaling-stroke" d="
  M 1007.90 1008.19
  L 944.62 1008.06
  Q 944.09 1008.06 944.09 1008.60
  L 944.23 1024.00"
/>
<path stroke="#1a1e24" vector-effect="non-scaling-stroke" d="
  M 243.64 635.28
  Q 241.02 634.91 239.62 635.09
  C 231.53 636.10 223.79 636.81 215.52 639.24
  C 207.95 641.47 199.41 643.21 193.51 645.33
  Q 171.48 653.25 155.56 662.34
  C 147.91 666.70 136.72 673.47 128.61 679.55
  C 110.14 693.38 91.11 710.16 77.26 728.63
  C 72.49 734.99 67.70 740.53 62.44 748.94
  C 52.93 764.13 44.64 780.09 38.20 796.82
  Q 34.07 807.58 32.59 813.39
  C 30.66 821.00 28.12 828.96 26.57 836.10
  C 20.83 862.40 18.89 887.33 17.83 913.26
  Q 17.69 916.73 17.76 920.69"
/>
<path stroke="#827f7c" vector-effect="non-scaling-stroke" d="
  M 17.76 920.69
  L 17.52 928.24
  Q 17.50 928.70 17.97 928.71
  C 42.72 928.89 67.59 929.01 92.08 924.87
  C 101.31 923.31 110.80 921.97 119.77 919.24
  C 122.56 918.39 125.80 917.82 128.75 916.84
  C 136.46 914.26 145.08 911.80 150.94 909.14
  C 158.39 905.77 166.51 902.62 173.27 899.00
  Q 196.78 886.42 217.28 869.27
  C 237.34 852.48 253.12 834.10 268.87 813.14
  C 271.17 810.08 273.37 806.42 275.73 803.10
  Q 278.73 798.87 280.72 795.49
  C 288.41 782.36 296.75 769.53 303.61 755.92
  Q 309.82 743.59 316.08 731.29
  C 318.79 725.97 321.16 719.63 323.99 713.91
  Q 329.12 703.54 329.16 703.45
  C 335.65 689.76 340.58 680.79 348.99 669.37
  C 364.19 648.72 384.31 632.34 407.49 621.27
  C 418.81 615.87 428.11 611.76 438.64 609.29
  Q 443.21 608.21 447.75 606.99
  Q 453.40 605.48 470.13 603.45
  C 472.11 603.21 474.46 603.42 476.61 603.14
  C 484.32 602.15 492.62 602.68 500.40 602.73
  C 501.84 602.73 503.21 603.23 504.75 603.25
  Q 509.55 603.34 514.33 603.91
  Q 550.63 608.21 583.77 623.49
  Q 586.58 624.78 588.64 626.18
  Q 589.06 626.47 589.22 626.94
  Q 590.46 630.66 592.27 634.11
  C 593.77 637.00 594.41 640.13 596.00 643.11
  Q 600.13 650.79 601.16 653.05
  Q 610.07 672.51 617.00 684.82
  C 617.79 686.23 618.84 687.50 619.54 688.81
  Q 622.84 694.98 626.31 701.32
  A 0.61 0.60 -18.8 0 1 625.87 702.20
  C 623.68 702.55 621.21 701.88 619.63 701.72
  C 610.06 700.78 600.71 697.55 591.49 694.92
  C 581.63 692.09 571.82 688.30 561.99 684.83
  Q 553.57 681.86 523.60 668.15
  C 522.05 667.45 520.74 666.00 518.92 665.29
  Q 515.39 663.93 512.01 662.25
  Q 500.14 656.39 488.20 650.62
  Q 470.60 642.12 452.17 635.49
  Q 451.70 635.32 451.21 635.42
  C 439.27 637.84 427.57 643.06 416.58 647.71
  Q 414.79 648.47 415.71 648.50"
/>
<path stroke="#1a1e24" vector-effect="non-scaling-stroke" d="
  M 415.71 648.50
  C 415.02 648.74 414.52 648.56 413.83 648.93
  C 396.30 658.33 382.61 669.86 371.58 683.33
  Q 365.39 690.89 357.24 703.99
  Q 349.92 715.77 344.35 728.19"
/>
<path stroke="#827f7c" vector-effect="non-scaling-stroke" d="
  M 344.35 728.19
  Q 339.08 739.86 332.71 750.96
  C 330.49 754.82 327.91 760.57 324.77 765.05
  C 322.84 767.82 321.44 770.78 319.58 773.59
  Q 315.25 780.16 310.91 786.74
  Q 310.63 787.17 311.10 787.37
  C 313.35 788.31 316.01 788.52 318.03 789.15
  Q 320.78 790.01 323.60 790.59
  C 326.64 791.22 329.28 792.71 332.45 793.42
  C 337.63 794.59 343.42 796.86 347.35 798.16
  C 357.06 801.38 366.29 804.39 376.23 808.41
  Q 381.36 810.49 388.50 813.23
  Q 399.25 817.35 421.71 827.16
  Q 423.66 828.01 425.69 828.68
  Q 427.81 829.38 429.59 830.32
  C 434.38 832.84 439.92 834.72 444.34 836.81
  C 450.02 839.48 456.12 841.95 461.50 844.46
  Q 470.50 848.65 479.63 852.54
  C 488.23 856.21 496.37 859.63 505.63 863.10
  Q 510.89 865.08 516.09 867.22
  C 522.15 869.72 528.47 871.66 534.76 873.68
  C 548.77 878.16 559.34 880.77 570.27 883.43
  Q 575.90 884.81 578.78 885.33
  C 595.88 888.43 612.25 890.70 629.15 890.77
  Q 629.62 890.78 630.32 890.93
  C 634.59 891.88 641.38 891.38 645.79 890.98
  C 650.04 890.59 655.27 890.71 658.57 890.47
  Q 666.29 889.91 674.00 889.25
  Q 678.89 888.84 693.55 885.62
  C 712.84 881.40 731.39 874.96 749.39 866.90
  C 754.20 864.75 759.27 862.15 763.76 859.54
  C 767.45 857.39 771.59 855.26 774.92 853.24
  Q 791.87 842.98 807.42 830.73
  C 815.13 824.67 823.24 817.02 831.07 810.03
  C 834.44 807.03 837.37 803.10 840.79 800.22
  C 844.70 796.93 847.90 792.47 850.91 788.36
  C 852.73 785.89 854.90 783.92 857.04 781.61"
/>
<path stroke="#1a1e24" vector-effect="non-scaling-stroke" d="
  M 857.04 781.61
  Q 862.55 773.49 863.85 770.83
  Q 874.41 749.27 879.97 725.96
  C 881.33 720.26 883.42 714.04 884.53 708.25
  Q 884.91 706.25 885.20 702.16"
/>
<path stroke="#827f7c" vector-effect="non-scaling-stroke" d="
  M 885.20 702.16
  Q 885.36 700.75 885.92 699.17
  C 887.56 694.53 887.93 688.66 888.34 683.75
  C 888.56 681.16 887.68 678.79 887.73 676.41
  Q 887.77 673.82 887.69 671.18
  A 0.46 0.45 75.1 0 0 887.02 670.79
  C 885.82 671.44 885.27 673.23 884.71 673.91
  C 881.70 677.60 877.78 680.69 874.14 683.74
  Q 871.94 685.58 870.03 686.91
  C 853.97 698.12 838.91 704.92 820.75 708.03
  Q 814.67 709.06 808.50 708.88
  C 800.05 708.62 791.15 708.15 783.11 705.12
  Q 774.36 701.84 771.79 700.21
  Q 757.61 691.25 748.44 681.05
  C 740.33 672.05 736.16 665.65 730.22 657.55
  Q 727.06 653.24 724.61 648.85
  C 721.06 642.47 716.74 635.82 713.57 629.96
  C 697.81 600.75 684.47 570.09 671.84 539.42
  C 670.10 535.19 668.41 529.76 666.38 525.02
  Q 662.80 516.72 661.92 514.39
  Q 652.72 490.01 643.41 465.66
  Q 630.65 432.31 618.28 398.80
  C 603.15 357.78 594.81 334.26 585.16 303.35
  C 584.35 300.75 582.93 297.23 582.11 294.06
  Q 581.09 290.11 580.01 287.07
  C 578.30 282.30 577.37 277.51 575.66 272.58
  C 574.12 268.14 573.51 263.69 571.95 259.24
  C 570.23 254.32 569.28 248.97 567.80 244.08
  C 566.37 239.35 565.70 234.25 564.44 229.71
  C 562.63 223.13 561.55 216.29 560.04 209.80
  C 558.30 202.34 557.33 194.45 556.02 187.27
  Q 554.77 180.38 554.07 173.50
  A 1.04 1.03 -3.1 0 0 553.04 172.58
  L 397.00 172.70
  A 0.49 0.49 0.0 0 0 396.51 173.13
  C 395.45 182.25 394.06 191.00 392.72 199.98
  C 392.19 203.59 390.94 206.82 390.49 210.55
  C 389.57 218.05 387.77 223.45 386.39 229.84
  C 382.63 247.23 377.68 264.29 373.04 281.46
  Q 372.56 283.21 371.51 285.90
  C 370.22 289.22 369.11 294.00 368.46 296.07
  C 359.21 325.80 352.19 346.31 339.94 380.47
  C 338.49 384.53 337.27 388.71 335.61 392.85
  Q 334.07 396.70 334.06 396.73
  Q 328.57 412.30 322.89 427.80
  Q 318.28 440.38 313.43 452.87
  C 311.00 459.12 308.44 466.23 306.05 472.93
  Q 302.50 482.89 298.91 492.84
  Q 296.36 499.88 293.62 506.85
  C 290.41 514.99 287.18 524.93 283.44 533.79
  C 282.49 536.03 281.94 538.63 281.05 540.80
  Q 274.06 558.06 269.25 571.49
  C 268.27 574.24 266.94 576.70 266.08 579.25
  C 264.88 582.83 262.96 586.62 261.81 589.64
  Q 257.44 601.01 253.22 612.44
  C 251.82 616.22 249.76 619.40 247.91 623.00
  C 245.90 626.94 246.11 631.17 243.64 635.28"
/>
<path stroke="#959799" vector-effect="non-scaling-stroke" d="
  M 885.20 702.16
  C 882.42 703.52 882.44 705.74 880.17 706.94
  Q 858.67 718.43 835.24 725.18
  Q 831.16 726.36 827.09 727.55
  C 821.32 729.24 815.17 730.36 809.20 731.88
  Q 804.26 733.14 799.52 733.75
  C 791.81 734.74 783.60 736.22 776.46 736.90
  C 770.30 737.49 763.93 737.96 757.75 738.21
  Q 734.98 739.12 715.77 737.96
  Q 708.76 737.54 701.75 737.26
  C 696.55 737.05 690.10 735.75 684.31 735.23
  Q 672.16 734.12 660.21 731.64
  Q 656.86 730.95 653.25 730.50
  C 645.83 729.58 639.61 728.13 630.09 726.16
  Q 621.13 724.30 614.01 722.44
  Q 579.64 713.50 546.45 700.80
  C 537.78 697.48 529.07 694.45 520.56 690.49
  C 515.10 687.94 509.32 685.99 504.00 683.52
  C 497.75 680.62 490.20 677.59 485.10 675.27
  Q 456.88 662.39 445.08 657.90
  C 433.04 653.33 426.03 650.44 415.71 648.50"
/>
<path stroke="#959799" vector-effect="non-scaling-stroke" d="
  M 17.76 920.69
  Q 35.13 915.07 41.18 911.66
  Q 43.69 910.25 45.21 909.53
  C 56.94 903.92 67.36 897.45 78.24 889.53
  C 86.61 883.44 95.30 876.49 103.00 868.99
  C 106.28 865.79 109.80 862.77 112.83 859.48
  C 119.63 852.09 126.66 844.94 132.76 837.02
  C 138.24 829.91 143.76 822.97 148.72 815.48
  C 151.56 811.21 155.38 806.93 158.06 802.54
  C 167.09 787.75 176.59 773.27 184.84 758.01
  Q 197.29 734.99 207.34 715.09
  C 209.27 711.27 210.91 706.97 212.97 702.98
  Q 215.54 698.00 218.75 691.03
  Q 233.37 659.28 243.64 635.28"
/>
<path stroke="#959799" vector-effect="non-scaling-stroke" d="
  M 857.04 781.61
  Q 855.08 782.44 853.35 783.32
  Q 851.04 784.49 849.66 785.06
  C 834.27 791.40 818.85 798.40 803.30 803.74
  C 780.26 811.65 758.36 817.42 739.74 821.28
  C 732.13 822.86 720.86 824.68 710.91 825.66
  C 703.81 826.37 696.92 827.78 689.75 827.73
  C 688.30 827.72 687.05 828.30 685.74 828.34
  Q 665.88 829.01 646.00 828.70
  Q 639.81 828.61 637.25 828.18
  C 634.66 827.76 631.91 827.74 630.11 827.55
  Q 611.73 825.62 593.54 822.41
  C 586.74 821.21 579.57 819.21 572.59 817.55
  Q 563.42 815.35 557.02 813.37
  Q 509.66 798.72 465.06 777.03
  C 460.05 774.60 454.06 772.17 448.67 769.48
  C 429.98 760.15 413.14 752.60 391.08 743.83
  Q 384.69 741.29 376.32 738.50
  C 368.52 735.91 360.99 732.99 352.91 730.83
  Q 348.66 729.69 344.35 728.19"
/>
<path stroke="#827f7c" vector-effect="non-scaling-stroke" d="
  M 506.83 514.75
  C 520.02 519.10 531.16 524.30 541.50 533.73
  C 543.77 535.79 545.92 538.68 548.18 541.12
  Q 548.59 541.56 548.61 540.96
  Q 548.66 539.53 548.39 538.69
  Q 546.44 532.59 542.08 520.43
  C 540.94 517.24 539.01 512.70 537.74 508.72
  C 536.41 504.53 534.67 500.61 533.45 497.01
  Q 528.07 481.04 522.65 465.09
  C 521.72 462.34 521.23 459.14 520.10 456.12
  C 518.36 451.48 516.94 445.26 515.98 441.95
  Q 511.21 425.47 507.04 408.83
  C 502.20 389.48 497.69 370.01 493.77 350.46
  Q 492.98 346.51 491.80 341.62
  C 490.13 334.68 489.35 328.35 488.22 322.61
  C 486.52 313.94 485.30 305.60 483.34 296.60
  Q 482.00 290.48 481.23 284.24
  C 480.94 281.93 479.01 278.73 478.41 275.96
  Q 476.37 266.55 474.37 257.77
  Q 473.79 255.27 473.38 257.81
  Q 472.17 265.30 471.52 273.60
  C 471.00 280.15 469.78 287.09 469.30 293.91
  C 469.10 296.73 468.37 299.13 467.71 301.81
  C 466.47 306.78 466.18 312.50 465.28 317.00
  Q 462.99 328.47 460.81 339.97
  Q 460.42 342.06 460.07 344.17
  Q 458.33 354.68 455.96 365.07
  Q 450.93 387.03 445.52 408.91
  C 444.35 413.64 442.80 418.94 441.45 425.01
  C 438.87 436.56 432.63 456.51 426.05 478.00
  Q 423.49 486.36 416.73 505.83
  C 412.24 518.77 407.52 529.27 401.35 540.68
  Q 400.53 542.20 401.79 541.02
  C 409.60 533.70 417.93 528.34 428.41 522.62
  C 440.39 516.08 452.90 512.58 468.24 510.57
  Q 478.22 509.27 492.20 511.49
  C 494.72 511.89 497.77 512.84 500.59 513.31
  Q 504.46 513.97 506.83 514.75"
/>
<path stroke="#959799" vector-effect="non-scaling-stroke" d="
  M 1007.90 1008.19
  L 1007.89 1024.00"
/>
</g>
<path fill="#060606" d="
  M 0.00 0.00
  L 1024.00 0.00
  L 1024.00 1008.66
  Q 1016.44 1007.35 1007.90 1008.19
  L 944.62 1008.06
  Q 944.09 1008.06 944.09 1008.60
  L 944.23 1024.00
  L 0.00 1024.00
  L 0.00 0.00
  Z
  M 243.64 635.28
  Q 241.02 634.91 239.62 635.09
  C 231.53 636.10 223.79 636.81 215.52 639.24
  C 207.95 641.47 199.41 643.21 193.51 645.33
  Q 171.48 653.25 155.56 662.34
  C 147.91 666.70 136.72 673.47 128.61 679.55
  C 110.14 693.38 91.11 710.16 77.26 728.63
  C 72.49 734.99 67.70 740.53 62.44 748.94
  C 52.93 764.13 44.64 780.09 38.20 796.82
  Q 34.07 807.58 32.59 813.39
  C 30.66 821.00 28.12 828.96 26.57 836.10
  C 20.83 862.40 18.89 887.33 17.83 913.26
  Q 17.69 916.73 17.76 920.69
  L 17.52 928.24
  Q 17.50 928.70 17.97 928.71
  C 42.72 928.89 67.59 929.01 92.08 924.87
  C 101.31 923.31 110.80 921.97 119.77 919.24
  C 122.56 918.39 125.80 917.82 128.75 916.84
  C 136.46 914.26 145.08 911.80 150.94 909.14
  C 158.39 905.77 166.51 902.62 173.27 899.00
  Q 196.78 886.42 217.28 869.27
  C 237.34 852.48 253.12 834.10 268.87 813.14
  C 271.17 810.08 273.37 806.42 275.73 803.10
  Q 278.73 798.87 280.72 795.49
  C 288.41 782.36 296.75 769.53 303.61 755.92
  Q 309.82 743.59 316.08 731.29
  C 318.79 725.97 321.16 719.63 323.99 713.91
  Q 329.12 703.54 329.16 703.45
  C 335.65 689.76 340.58 680.79 348.99 669.37
  C 364.19 648.72 384.31 632.34 407.49 621.27
  C 418.81 615.87 428.11 611.76 438.64 609.29
  Q 443.21 608.21 447.75 606.99
  Q 453.40 605.48 470.13 603.45
  C 472.11 603.21 474.46 603.42 476.61 603.14
  C 484.32 602.15 492.62 602.68 500.40 602.73
  C 501.84 602.73 503.21 603.23 504.75 603.25
  Q 509.55 603.34 514.33 603.91
  Q 550.63 608.21 583.77 623.49
  Q 586.58 624.78 588.64 626.18
  Q 589.06 626.47 589.22 626.94
  Q 590.46 630.66 592.27 634.11
  C 593.77 637.00 594.41 640.13 596.00 643.11
  Q 600.13 650.79 601.16 653.05
  Q 610.07 672.51 617.00 684.82
  C 617.79 686.23 618.84 687.50 619.54 688.81
  Q 622.84 694.98 626.31 701.32
  A 0.61 0.60 -18.8 0 1 625.87 702.20
  C 623.68 702.55 621.21 701.88 619.63 701.72
  C 610.06 700.78 600.71 697.55 591.49 694.92
  C 581.63 692.09 571.82 688.30 561.99 684.83
  Q 553.57 681.86 523.60 668.15
  C 522.05 667.45 520.74 666.00 518.92 665.29
  Q 515.39 663.93 512.01 662.25
  Q 500.14 656.39 488.20 650.62
  Q 470.60 642.12 452.17 635.49
  Q 451.70 635.32 451.21 635.42
  C 439.27 637.84 427.57 643.06 416.58 647.71
  Q 414.79 648.47 415.71 648.50
  C 415.02 648.74 414.52 648.56 413.83 648.93
  C 396.30 658.33 382.61 669.86 371.58 683.33
  Q 365.39 690.89 357.24 703.99
  Q 349.92 715.77 344.35 728.19
  Q 339.08 739.86 332.71 750.96
  C 330.49 754.82 327.91 760.57 324.77 765.05
  C 322.84 767.82 321.44 770.78 319.58 773.59
  Q 315.25 780.16 310.91 786.74
  Q 310.63 787.17 311.10 787.37
  C 313.35 788.31 316.01 788.52 318.03 789.15
  Q 320.78 790.01 323.60 790.59
  C 326.64 791.22 329.28 792.71 332.45 793.42
  C 337.63 794.59 343.42 796.86 347.35 798.16
  C 357.06 801.38 366.29 804.39 376.23 808.41
  Q 381.36 810.49 388.50 813.23
  Q 399.25 817.35 421.71 827.16
  Q 423.66 828.01 425.69 828.68
  Q 427.81 829.38 429.59 830.32
  C 434.38 832.84 439.92 834.72 444.34 836.81
  C 450.02 839.48 456.12 841.95 461.50 844.46
  Q 470.50 848.65 479.63 852.54
  C 488.23 856.21 496.37 859.63 505.63 863.10
  Q 510.89 865.08 516.09 867.22
  C 522.15 869.72 528.47 871.66 534.76 873.68
  C 548.77 878.16 559.34 880.77 570.27 883.43
  Q 575.90 884.81 578.78 885.33
  C 595.88 888.43 612.25 890.70 629.15 890.77
  Q 629.62 890.78 630.32 890.93
  C 634.59 891.88 641.38 891.38 645.79 890.98
  C 650.04 890.59 655.27 890.71 658.57 890.47
  Q 666.29 889.91 674.00 889.25
  Q 678.89 888.84 693.55 885.62
  C 712.84 881.40 731.39 874.96 749.39 866.90
  C 754.20 864.75 759.27 862.15 763.76 859.54
  C 767.45 857.39 771.59 855.26 774.92 853.24
  Q 791.87 842.98 807.42 830.73
  C 815.13 824.67 823.24 817.02 831.07 810.03
  C 834.44 807.03 837.37 803.10 840.79 800.22
  C 844.70 796.93 847.90 792.47 850.91 788.36
  C 852.73 785.89 854.90 783.92 857.04 781.61
  Q 862.55 773.49 863.85 770.83
  Q 874.41 749.27 879.97 725.96
  C 881.33 720.26 883.42 714.04 884.53 708.25
  Q 884.91 706.25 885.20 702.16
  Q 885.36 700.75 885.92 699.17
  C 887.56 694.53 887.93 688.66 888.34 683.75
  C 888.56 681.16 887.68 678.79 887.73 676.41
  Q 887.77 673.82 887.69 671.18
  A 0.46 0.45 75.1 0 0 887.02 670.79
  C 885.82 671.44 885.27 673.23 884.71 673.91
  C 881.70 677.60 877.78 680.69 874.14 683.74
  Q 871.94 685.58 870.03 686.91
  C 853.97 698.12 838.91 704.92 820.75 708.03
  Q 814.67 709.06 808.50 708.88
  C 800.05 708.62 791.15 708.15 783.11 705.12
  Q 774.36 701.84 771.79 700.21
  Q 757.61 691.25 748.44 681.05
  C 740.33 672.05 736.16 665.65 730.22 657.55
  Q 727.06 653.24 724.61 648.85
  C 721.06 642.47 716.74 635.82 713.57 629.96
  C 697.81 600.75 684.47 570.09 671.84 539.42
  C 670.10 535.19 668.41 529.76 666.38 525.02
  Q 662.80 516.72 661.92 514.39
  Q 652.72 490.01 643.41 465.66
  Q 630.65 432.31 618.28 398.80
  C 603.15 357.78 594.81 334.26 585.16 303.35
  C 584.35 300.75 582.93 297.23 582.11 294.06
  Q 581.09 290.11 580.01 287.07
  C 578.30 282.30 577.37 277.51 575.66 272.58
  C 574.12 268.14 573.51 263.69 571.95 259.24
  C 570.23 254.32 569.28 248.97 567.80 244.08
  C 566.37 239.35 565.70 234.25 564.44 229.71
  C 562.63 223.13 561.55 216.29 560.04 209.80
  C 558.30 202.34 557.33 194.45 556.02 187.27
  Q 554.77 180.38 554.07 173.50
  A 1.04 1.03 -3.1 0 0 553.04 172.58
  L 397.00 172.70
  A 0.49 0.49 0.0 0 0 396.51 173.13
  C 395.45 182.25 394.06 191.00 392.72 199.98
  C 392.19 203.59 390.94 206.82 390.49 210.55
  C 389.57 218.05 387.77 223.45 386.39 229.84
  C 382.63 247.23 377.68 264.29 373.04 281.46
  Q 372.56 283.21 371.51 285.90
  C 370.22 289.22 369.11 294.00 368.46 296.07
  C 359.21 325.80 352.19 346.31 339.94 380.47
  C 338.49 384.53 337.27 388.71 335.61 392.85
  Q 334.07 396.70 334.06 396.73
  Q 328.57 412.30 322.89 427.80
  Q 318.28 440.38 313.43 452.87
  C 311.00 459.12 308.44 466.23 306.05 472.93
  Q 302.50 482.89 298.91 492.84
  Q 296.36 499.88 293.62 506.85
  C 290.41 514.99 287.18 524.93 283.44 533.79
  C 282.49 536.03 281.94 538.63 281.05 540.80
  Q 274.06 558.06 269.25 571.49
  C 268.27 574.24 266.94 576.70 266.08 579.25
  C 264.88 582.83 262.96 586.62 261.81 589.64
  Q 257.44 601.01 253.22 612.44
  C 251.82 616.22 249.76 619.40 247.91 623.00
  C 245.90 626.94 246.11 631.17 243.64 635.28
  Z"
/>
<path fill="#fdf8f1" d="
  M 885.20 702.16
  C 882.42 703.52 882.44 705.74 880.17 706.94
  Q 858.67 718.43 835.24 725.18
  Q 831.16 726.36 827.09 727.55
  C 821.32 729.24 815.17 730.36 809.20 731.88
  Q 804.26 733.14 799.52 733.75
  C 791.81 734.74 783.60 736.22 776.46 736.90
  C 770.30 737.49 763.93 737.96 757.75 738.21
  Q 734.98 739.12 715.77 737.96
  Q 708.76 737.54 701.75 737.26
  C 696.55 737.05 690.10 735.75 684.31 735.23
  Q 672.16 734.12 660.21 731.64
  Q 656.86 730.95 653.25 730.50
  C 645.83 729.58 639.61 728.13 630.09 726.16
  Q 621.13 724.30 614.01 722.44
  Q 579.64 713.50 546.45 700.80
  C 537.78 697.48 529.07 694.45 520.56 690.49
  C 515.10 687.94 509.32 685.99 504.00 683.52
  C 497.75 680.62 490.20 677.59 485.10 675.27
  Q 456.88 662.39 445.08 657.90
  C 433.04 653.33 426.03 650.44 415.71 648.50
  Q 414.79 648.47 416.58 647.71
  C 427.57 643.06 439.27 637.84 451.21 635.42
  Q 451.70 635.32 452.17 635.49
  Q 470.60 642.12 488.20 650.62
  Q 500.14 656.39 512.01 662.25
  Q 515.39 663.93 518.92 665.29
  C 520.74 666.00 522.05 667.45 523.60 668.15
  Q 553.57 681.86 561.99 684.83
  C 571.82 688.30 581.63 692.09 591.49 694.92
  C 600.71 697.55 610.06 700.78 619.63 701.72
  C 621.21 701.88 623.68 702.55 625.87 702.20
  A 0.61 0.60 -18.8 0 0 626.31 701.32
  Q 622.84 694.98 619.54 688.81
  C 618.84 687.50 617.79 686.23 617.00 684.82
  Q 610.07 672.51 601.16 653.05
  Q 600.13 650.79 596.00 643.11
  C 594.41 640.13 593.77 637.00 592.27 634.11
  Q 590.46 630.66 589.22 626.94
  Q 589.06 626.47 588.64 626.18
  Q 586.58 624.78 583.77 623.49
  Q 550.63 608.21 514.33 603.91
  Q 509.55 603.34 504.75 603.25
  C 503.21 603.23 501.84 602.73 500.40 602.73
  C 492.62 602.68 484.32 602.15 476.61 603.14
  C 474.46 603.42 472.11 603.21 470.13 603.45
  Q 453.40 605.48 447.75 606.99
  Q 443.21 608.21 438.64 609.29
  C 428.11 611.76 418.81 615.87 407.49 621.27
  C 384.31 632.34 364.19 648.72 348.99 669.37
  C 340.58 680.79 335.65 689.76 329.16 703.45
  Q 329.12 703.54 323.99 713.91
  C 321.16 719.63 318.79 725.97 316.08 731.29
  Q 309.82 743.59 303.61 755.92
  C 296.75 769.53 288.41 782.36 280.72 795.49
  Q 278.73 798.87 275.73 803.10
  C 273.37 806.42 271.17 810.08 268.87 813.14
  C 253.12 834.10 237.34 852.48 217.28 869.27
  Q 196.78 886.42 173.27 899.00
  C 166.51 902.62 158.39 905.77 150.94 909.14
  C 145.08 911.80 136.46 914.26 128.75 916.84
  C 125.80 917.82 122.56 918.39 119.77 919.24
  C 110.80 921.97 101.31 923.31 92.08 924.87
  C 67.59 929.01 42.72 928.89 17.97 928.71
  Q 17.50 928.70 17.52 928.24
  L 17.76 920.69
  Q 35.13 915.07 41.18 911.66
  Q 43.69 910.25 45.21 909.53
  C 56.94 903.92 67.36 897.45 78.24 889.53
  C 86.61 883.44 95.30 876.49 103.00 868.99
  C 106.28 865.79 109.80 862.77 112.83 859.48
  C 119.63 852.09 126.66 844.94 132.76 837.02
  C 138.24 829.91 143.76 822.97 148.72 815.48
  C 151.56 811.21 155.38 806.93 158.06 802.54
  C 167.09 787.75 176.59 773.27 184.84 758.01
  Q 197.29 734.99 207.34 715.09
  C 209.27 711.27 210.91 706.97 212.97 702.98
  Q 215.54 698.00 218.75 691.03
  Q 233.37 659.28 243.64 635.28
  C 246.11 631.17 245.90 626.94 247.91 623.00
  C 249.76 619.40 251.82 616.22 253.22 612.44
  Q 257.44 601.01 261.81 589.64
  C 262.96 586.62 264.88 582.83 266.08 579.25
  C 266.94 576.70 268.27 574.24 269.25 571.49
  Q 274.06 558.06 281.05 540.80
  C 281.94 538.63 282.49 536.03 283.44 533.79
  C 287.18 524.93 290.41 514.99 293.62 506.85
  Q 296.36 499.88 298.91 492.84
  Q 302.50 482.89 306.05 472.93
  C 308.44 466.23 311.00 459.12 313.43 452.87
  Q 318.28 440.38 322.89 427.80
  Q 328.57 412.30 334.06 396.73
  Q 334.07 396.70 335.61 392.85
  C 337.27 388.71 338.49 384.53 339.94 380.47
  C 352.19 346.31 359.21 325.80 368.46 296.07
  C 369.11 294.00 370.22 289.22 371.51 285.90
  Q 372.56 283.21 373.04 281.46
  C 377.68 264.29 382.63 247.23 386.39 229.84
  C 387.77 223.45 389.57 218.05 390.49 210.55
  C 390.94 206.82 392.19 203.59 392.72 199.98
  C 394.06 191.00 395.45 182.25 396.51 173.13
  A 0.49 0.49 0.0 0 1 397.00 172.70
  L 553.04 172.58
  A 1.04 1.03 -3.1 0 1 554.07 173.50
  Q 554.77 180.38 556.02 187.27
  C 557.33 194.45 558.30 202.34 560.04 209.80
  C 561.55 216.29 562.63 223.13 564.44 229.71
  C 565.70 234.25 566.37 239.35 567.80 244.08
  C 569.28 248.97 570.23 254.32 571.95 259.24
  C 573.51 263.69 574.12 268.14 575.66 272.58
  C 577.37 277.51 578.30 282.30 580.01 287.07
  Q 581.09 290.11 582.11 294.06
  C 582.93 297.23 584.35 300.75 585.16 303.35
  C 594.81 334.26 603.15 357.78 618.28 398.80
  Q 630.65 432.31 643.41 465.66
  Q 652.72 490.01 661.92 514.39
  Q 662.80 516.72 666.38 525.02
  C 668.41 529.76 670.10 535.19 671.84 539.42
  C 684.47 570.09 697.81 600.75 713.57 629.96
  C 716.74 635.82 721.06 642.47 724.61 648.85
  Q 727.06 653.24 730.22 657.55
  C 736.16 665.65 740.33 672.05 748.44 681.05
  Q 757.61 691.25 771.79 700.21
  Q 774.36 701.84 783.11 705.12
  C 791.15 708.15 800.05 708.62 808.50 708.88
  Q 814.67 709.06 820.75 708.03
  C 838.91 704.92 853.97 698.12 870.03 686.91
  Q 871.94 685.58 874.14 683.74
  C 877.78 680.69 881.70 677.60 884.71 673.91
  C 885.27 673.23 885.82 671.44 887.02 670.79
  A 0.46 0.45 75.1 0 1 887.69 671.18
  Q 887.77 673.82 887.73 676.41
  C 887.68 678.79 888.56 681.16 888.34 683.75
  C 887.93 688.66 887.56 694.53 885.92 699.17
  Q 885.36 700.75 885.20 702.16
  Z
  M 506.83 514.75
  C 520.02 519.10 531.16 524.30 541.50 533.73
  C 543.77 535.79 545.92 538.68 548.18 541.12
  Q 548.59 541.56 548.61 540.96
  Q 548.66 539.53 548.39 538.69
  Q 546.44 532.59 542.08 520.43
  C 540.94 517.24 539.01 512.70 537.74 508.72
  C 536.41 504.53 534.67 500.61 533.45 497.01
  Q 528.07 481.04 522.65 465.09
  C 521.72 462.34 521.23 459.14 520.10 456.12
  C 518.36 451.48 516.94 445.26 515.98 441.95
  Q 511.21 425.47 507.04 408.83
  C 502.20 389.48 497.69 370.01 493.77 350.46
  Q 492.98 346.51 491.80 341.62
  C 490.13 334.68 489.35 328.35 488.22 322.61
  C 486.52 313.94 485.30 305.60 483.34 296.60
  Q 482.00 290.48 481.23 284.24
  C 480.94 281.93 479.01 278.73 478.41 275.96
  Q 476.37 266.55 474.37 257.77
  Q 473.79 255.27 473.38 257.81
  Q 472.17 265.30 471.52 273.60
  C 471.00 280.15 469.78 287.09 469.30 293.91
  C 469.10 296.73 468.37 299.13 467.71 301.81
  C 466.47 306.78 466.18 312.50 465.28 317.00
  Q 462.99 328.47 460.81 339.97
  Q 460.42 342.06 460.07 344.17
  Q 458.33 354.68 455.96 365.07
  Q 450.93 387.03 445.52 408.91
  C 444.35 413.64 442.80 418.94 441.45 425.01
  C 438.87 436.56 432.63 456.51 426.05 478.00
  Q 423.49 486.36 416.73 505.83
  C 412.24 518.77 407.52 529.27 401.35 540.68
  Q 400.53 542.20 401.79 541.02
  C 409.60 533.70 417.93 528.34 428.41 522.62
  C 440.39 516.08 452.90 512.58 468.24 510.57
  Q 478.22 509.27 492.20 511.49
  C 494.72 511.89 497.77 512.84 500.59 513.31
  Q 504.46 513.97 506.83 514.75
  Z"
/>
<path fill="#060606" d="
  M 541.50 533.73
  C 531.16 524.30 520.02 519.10 506.83 514.75
  Q 504.46 513.97 500.59 513.31
  C 497.77 512.84 494.72 511.89 492.20 511.49
  Q 478.22 509.27 468.24 510.57
  C 452.90 512.58 440.39 516.08 428.41 522.62
  C 417.93 528.34 409.60 533.70 401.79 541.02
  Q 400.53 542.20 401.35 540.68
  C 407.52 529.27 412.24 518.77 416.73 505.83
  Q 423.49 486.36 426.05 478.00
  C 432.63 456.51 438.87 436.56 441.45 425.01
  C 442.80 418.94 444.35 413.64 445.52 408.91
  Q 450.93 387.03 455.96 365.07
  Q 458.33 354.68 460.07 344.17
  Q 460.42 342.06 460.81 339.97
  Q 462.99 328.47 465.28 317.00
  C 466.18 312.50 466.47 306.78 467.71 301.81
  C 468.37 299.13 469.10 296.73 469.30 293.91
  C 469.78 287.09 471.00 280.15 471.52 273.60
  Q 472.17 265.30 473.38 257.81
  Q 473.79 255.27 474.37 257.77
  Q 476.37 266.55 478.41 275.96
  C 479.01 278.73 480.94 281.93 481.23 284.24
  Q 482.00 290.48 483.34 296.60
  C 485.30 305.60 486.52 313.94 488.22 322.61
  C 489.35 328.35 490.13 334.68 491.80 341.62
  Q 492.98 346.51 493.77 350.46
  C 497.69 370.01 502.20 389.48 507.04 408.83
  Q 511.21 425.47 515.98 441.95
  C 516.94 445.26 518.36 451.48 520.10 456.12
  C 521.23 459.14 521.72 462.34 522.65 465.09
  Q 528.07 481.04 533.45 497.01
  C 534.67 500.61 536.41 504.53 537.74 508.72
  C 539.01 512.70 540.94 517.24 542.08 520.43
  Q 546.44 532.59 548.39 538.69
  Q 548.66 539.53 548.61 540.96
  Q 548.59 541.56 548.18 541.12
  C 545.92 538.68 543.77 535.79 541.50 533.73
  Z"
/>
<path fill="#2d3641" d="
  M 243.64 635.28
  Q 233.37 659.28 218.75 691.03
  Q 215.54 698.00 212.97 702.98
  C 210.91 706.97 209.27 711.27 207.34 715.09
  Q 197.29 734.99 184.84 758.01
  C 176.59 773.27 167.09 787.75 158.06 802.54
  C 155.38 806.93 151.56 811.21 148.72 815.48
  C 143.76 822.97 138.24 829.91 132.76 837.02
  C 126.66 844.94 119.63 852.09 112.83 859.48
  C 109.80 862.77 106.28 865.79 103.00 868.99
  C 95.30 876.49 86.61 883.44 78.24 889.53
  C 67.36 897.45 56.94 903.92 45.21 909.53
  Q 43.69 910.25 41.18 911.66
  Q 35.13 915.07 17.76 920.69
  Q 17.69 916.73 17.83 913.26
  C 18.89 887.33 20.83 862.40 26.57 836.10
  C 28.12 828.96 30.66 821.00 32.59 813.39
  Q 34.07 807.58 38.20 796.82
  C 44.64 780.09 52.93 764.13 62.44 748.94
  C 67.70 740.53 72.49 734.99 77.26 728.63
  C 91.11 710.16 110.14 693.38 128.61 679.55
  C 136.72 673.47 147.91 666.70 155.56 662.34
  Q 171.48 653.25 193.51 645.33
  C 199.41 643.21 207.95 641.47 215.52 639.24
  C 223.79 636.81 231.53 636.10 239.62 635.09
  Q 241.02 634.91 243.64 635.28
  Z"
/>
<path fill="#2d3641" d="
  M 415.71 648.50
  C 426.03 650.44 433.04 653.33 445.08 657.90
  Q 456.88 662.39 485.10 675.27
  C 490.20 677.59 497.75 680.62 504.00 683.52
  C 509.32 685.99 515.10 687.94 520.56 690.49
  C 529.07 694.45 537.78 697.48 546.45 700.80
  Q 579.64 713.50 614.01 722.44
  Q 621.13 724.30 630.09 726.16
  C 639.61 728.13 645.83 729.58 653.25 730.50
  Q 656.86 730.95 660.21 731.64
  Q 672.16 734.12 684.31 735.23
  C 690.10 735.75 696.55 737.05 701.75 737.26
  Q 708.76 737.54 715.77 737.96
  Q 734.98 739.12 757.75 738.21
  C 763.93 737.96 770.30 737.49 776.46 736.90
  C 783.60 736.22 791.81 734.74 799.52 733.75
  Q 804.26 733.14 809.20 731.88
  C 815.17 730.36 821.32 729.24 827.09 727.55
  Q 831.16 726.36 835.24 725.18
  Q 858.67 718.43 880.17 706.94
  C 882.44 705.74 882.42 703.52 885.20 702.16
  Q 884.91 706.25 884.53 708.25
  C 883.42 714.04 881.33 720.26 879.97 725.96
  Q 874.41 749.27 863.85 770.83
  Q 862.55 773.49 857.04 781.61
  Q 855.08 782.44 853.35 783.32
  Q 851.04 784.49 849.66 785.06
  C 834.27 791.40 818.85 798.40 803.30 803.74
  C 780.26 811.65 758.36 817.42 739.74 821.28
  C 732.13 822.86 720.86 824.68 710.91 825.66
  C 703.81 826.37 696.92 827.78 689.75 827.73
  C 688.30 827.72 687.05 828.30 685.74 828.34
  Q 665.88 829.01 646.00 828.70
  Q 639.81 828.61 637.25 828.18
  C 634.66 827.76 631.91 827.74 630.11 827.55
  Q 611.73 825.62 593.54 822.41
  C 586.74 821.21 579.57 819.21 572.59 817.55
  Q 563.42 815.35 557.02 813.37
  Q 509.66 798.72 465.06 777.03
  C 460.05 774.60 454.06 772.17 448.67 769.48
  C 429.98 760.15 413.14 752.60 391.08 743.83
  Q 384.69 741.29 376.32 738.50
  C 368.52 735.91 360.99 732.99 352.91 730.83
  Q 348.66 729.69 344.35 728.19
  Q 349.92 715.77 357.24 703.99
  Q 365.39 690.89 371.58 683.33
  C 382.61 669.86 396.30 658.33 413.83 648.93
  C 414.52 648.56 415.02 648.74 415.71 648.50
  Z"
/>
<path fill="#fdf8f1" d="
  M 344.35 728.19
  Q 348.66 729.69 352.91 730.83
  C 360.99 732.99 368.52 735.91 376.32 738.50
  Q 384.69 741.29 391.08 743.83
  C 413.14 752.60 429.98 760.15 448.67 769.48
  C 454.06 772.17 460.05 774.60 465.06 777.03
  Q 509.66 798.72 557.02 813.37
  Q 563.42 815.35 572.59 817.55
  C 579.57 819.21 586.74 821.21 593.54 822.41
  Q 611.73 825.62 630.11 827.55
  C 631.91 827.74 634.66 827.76 637.25 828.18
  Q 639.81 828.61 646.00 828.70
  Q 665.88 829.01 685.74 828.34
  C 687.05 828.30 688.30 827.72 689.75 827.73
  C 696.92 827.78 703.81 826.37 710.91 825.66
  C 720.86 824.68 732.13 822.86 739.74 821.28
  C 758.36 817.42 780.26 811.65 803.30 803.74
  C 818.85 798.40 834.27 791.40 849.66 785.06
  Q 851.04 784.49 853.35 783.32
  Q 855.08 782.44 857.04 781.61
  C 854.90 783.92 852.73 785.89 850.91 788.36
  C 847.90 792.47 844.70 796.93 840.79 800.22
  C 837.37 803.10 834.44 807.03 831.07 810.03
  C 823.24 817.02 815.13 824.67 807.42 830.73
  Q 791.87 842.98 774.92 853.24
  C 771.59 855.26 767.45 857.39 763.76 859.54
  C 759.27 862.15 754.20 864.75 749.39 866.90
  C 731.39 874.96 712.84 881.40 693.55 885.62
  Q 678.89 888.84 674.00 889.25
  Q 666.29 889.91 658.57 890.47
  C 655.27 890.71 650.04 890.59 645.79 890.98
  C 641.38 891.38 634.59 891.88 630.32 890.93
  Q 629.62 890.78 629.15 890.77
  C 612.25 890.70 595.88 888.43 578.78 885.33
  Q 575.90 884.81 570.27 883.43
  C 559.34 880.77 548.77 878.16 534.76 873.68
  C 528.47 871.66 522.15 869.72 516.09 867.22
  Q 510.89 865.08 505.63 863.10
  C 496.37 859.63 488.23 856.21 479.63 852.54
  Q 470.50 848.65 461.50 844.46
  C 456.12 841.95 450.02 839.48 444.34 836.81
  C 439.92 834.72 434.38 832.84 429.59 830.32
  Q 427.81 829.38 425.69 828.68
  Q 423.66 828.01 421.71 827.16
  Q 399.25 817.35 388.50 813.23
  Q 381.36 810.49 376.23 808.41
  C 366.29 804.39 357.06 801.38 347.35 798.16
  C 343.42 796.86 337.63 794.59 332.45 793.42
  C 329.28 792.71 326.64 791.22 323.60 790.59
  Q 320.78 790.01 318.03 789.15
  C 316.01 788.52 313.35 788.31 311.10 787.37
  Q 310.63 787.17 310.91 786.74
  Q 315.25 780.16 319.58 773.59
  C 321.44 770.78 322.84 767.82 324.77 765.05
  C 327.91 760.57 330.49 754.82 332.71 750.96
  Q 339.08 739.86 344.35 728.19
  Z"
/>
<path fill="#fdf8f1" d="
  M 1007.90 1008.19
  L 1007.89 1024.00
  L 944.23 1024.00
  L 944.09 1008.60
  Q 944.09 1008.06 944.62 1008.06
  L 1007.90 1008.19
  Z"
/>
<path fill="#2d3641" d="
  M 1024.00 1008.66
  L 1024.00 1024.00
  L 1007.89 1024.00
  L 1007.90 1008.19
  Q 1016.44 1007.35 1024.00 1008.66
  Z"
/>
</svg>
